<?xml version="1.0" encoding="UTF-8"?>
<svg version="1.1" xmlns="http://www.w3.org/2000/svg" width="410" height="242">
<path d="M0 0 C135.3 0 270.6 0 410 0 C410 79.86 410 159.72 410 242 C274.7 242 139.4 242 0 242 C0 162.14 0 82.28 0 0 Z " fill="#EDEDDF" transform="translate(0,0)"/>
<path d="M0 0 C1.8515625 1.45703125 1.8515625 1.45703125 3.2265625 5.01953125 C2.8515625 8.45703125 2.8515625 8.45703125 1.5390625 10.64453125 C-8.68583791 17.54039432 -20.79999824 18.8513972 -32.8359375 18.83203125 C-33.88378418 18.83041992 -34.93163086 18.82880859 -36.01123047 18.82714844 C-46.92151436 18.65586185 -57.25621223 17.31711771 -66.1484375 10.45703125 C-67.4609375 7.08203125 -67.4609375 7.08203125 -67.1484375 3.45703125 C-63.9124909 -1.92768621 -57.60481137 -3.90200062 -51.82080078 -5.41113281 C-35.18307822 -9.01085115 -15.16853423 -8.17717399 0 0 Z " fill="#1A3155" transform="translate(268.1484375,86.54296875)"/>
<path d="M0 0 C2.71652621 2.2710912 2.9673309 2.64717368 3.3125 6.375 C1.84868685 10.4179125 1.36495586 10.81026759 -2.25 12.75 C-19.29129704 19.98181093 -39.26502995 20.46761358 -56.9765625 15.265625 C-60.35440396 13.85164485 -63.10885601 12.24866755 -66 10 C-67.125 6.5 -67.125 6.5 -67 3 C-62.98086874 -2.78754902 -55.58352869 -4.86939997 -49.00390625 -6.42578125 C-32.94269511 -9.17001468 -14.23619247 -8.4362622 0 0 Z " fill="#1A3155" transform="translate(186,131)"/>
<path d="M0 0 C1.8515625 1.45703125 1.8515625 1.45703125 3.2265625 5.01953125 C2.8515625 8.45703125 2.8515625 8.45703125 1.5390625 10.64453125 C-12.70148146 20.24861904 -33.39170935 20.62894652 -49.796875 17.76953125 C-56.83134305 16.23592247 -62.46690233 14.0520367 -67.1484375 8.45703125 C-67.9609375 5.89453125 -67.9609375 5.89453125 -67.1484375 3.45703125 C-52.57919334 -12.68726633 -17.40621807 -9.38348238 0 0 Z " fill="#1A3055" transform="translate(350.1484375,42.54296875)"/>
<path d="M0 0 C1.30859375 1.5859375 1.30859375 1.5859375 1.62109375 4.9609375 C0.1572806 9.00385 -0.32645039 9.39620509 -3.94140625 11.3359375 C-21.6246762 18.87184579 -43.50784876 19.20261934 -61.57421875 12.51953125 C-65.79103404 10.51687446 -67.35310966 9.50417111 -69.00390625 5.0234375 C-68.69140625 1.5859375 -68.69140625 1.5859375 -67.12890625 -0.6640625 C-50.89239279 -12.32104652 -15.73896869 -13.15821401 0 0 Z " fill="#193054" transform="translate(105.69140625,177.4140625)"/>
<path d="M0 0 C0.99 0.7425 1.98 1.485 3 2.25 C18.1586224 11.65048845 38.17886373 10.2199014 55 7 C60.65900699 5.46435723 65.40796126 3.68834233 70 0 C70.10832169 2.08218362 70.18573541 4.16599129 70.25 6.25 C70.29640625 7.41015625 70.3428125 8.5703125 70.390625 9.765625 C70 13 70 13 68.2734375 15.2890625 C65.99938495 17.00046287 64.02342038 18.0984136 61.375 19.125 C60.59898437 19.43695313 59.82296875 19.74890625 59.0234375 20.0703125 C50.81789226 22.59346466 42.8760077 23.38877877 34.3125 23.375 C33.26465332 23.37338867 32.21680664 23.37177734 31.13720703 23.37011719 C20.10007911 23.19683921 10.07689072 21.76108576 1 15 C-0.44207941 12.11584117 -0.09394887 9.58278472 -0.0625 6.375 C-0.05347656 5.18648437 -0.04445312 3.99796875 -0.03515625 2.7734375 C-0.02355469 1.85820313 -0.01195312 0.94296875 0 0 Z " fill="#1B3256" transform="translate(201,126)"/>
<path d="M0 0 C0.99 0.7425 1.98 1.485 3 2.25 C18.1586224 11.65048845 38.17886373 10.2199014 55 7 C60.65900699 5.46435723 65.40796126 3.68834233 70 0 C70.10832169 2.08218362 70.18573541 4.16599129 70.25 6.25 C70.29640625 7.41015625 70.3428125 8.5703125 70.390625 9.765625 C70 13 70 13 68.2734375 15.2890625 C65.99938495 17.00046287 64.02342038 18.0984136 61.375 19.125 C60.59898437 19.43695313 59.82296875 19.74890625 59.0234375 20.0703125 C50.81789226 22.59346466 42.8760077 23.38877877 34.3125 23.375 C33.26465332 23.37338867 32.21680664 23.37177734 31.13720703 23.37011719 C20.10007911 23.19683921 10.07689072 21.76108576 1 15 C-0.44207941 12.11584117 -0.09394887 9.58278472 -0.0625 6.375 C-0.05347656 5.18648438 -0.04445312 3.99796875 -0.03515625 2.7734375 C-0.02355469 1.85820313 -0.01195312 0.94296875 0 0 Z " fill="#1B3256" transform="translate(201,104)"/>
<path d="M0 0 C0.46148437 0.32613281 0.92296875 0.65226562 1.3984375 0.98828125 C17.01512164 11.45084236 37.18730848 10.3817078 55 7 C60.6590458 5.46611792 65.40841446 3.68797832 70 0 C70.10832169 2.08218362 70.18573541 4.16599129 70.25 6.25 C70.29640625 7.41015625 70.3428125 8.5703125 70.390625 9.765625 C70 13 70 13 68.2734375 15.2890625 C65.99938495 17.00046287 64.02342038 18.0984136 61.375 19.125 C60.59898437 19.43695313 59.82296875 19.74890625 59.0234375 20.0703125 C41.8076522 25.36405527 21.02405955 25.34112569 4.46875 17.85546875 C2.2047135 16.36857176 1.18301181 15.44489107 0 13 C-0.53996819 8.6016183 -0.41172349 4.40478786 0 0 Z " fill="#1B3256" transform="translate(283,104)"/>
<path d="M0 0 C0.46148437 0.32613281 0.92296875 0.65226562 1.3984375 0.98828125 C17.01512164 11.45084236 37.18730848 10.3817078 55 7 C60.6590458 5.46611792 65.40841446 3.68797832 70 0 C70.10832169 2.08218362 70.18573541 4.16599129 70.25 6.25 C70.29640625 7.41015625 70.3428125 8.5703125 70.390625 9.765625 C70 13 70 13 68.2734375 15.2890625 C65.99938495 17.00046287 64.02342038 18.0984136 61.375 19.125 C60.59898437 19.43695313 59.82296875 19.74890625 59.0234375 20.0703125 C51.32313218 22.43810664 43.85133018 23.3630397 35.8125 23.3125 C34.45209595 23.30730347 34.45209595 23.30730347 33.06420898 23.30200195 C22.06822494 23.12641544 10.70459465 22.01734566 1.640625 15.234375 C-0.62390698 12.15029811 -0.40114516 10.02862897 -0.25 6.25 C-0.21390625 5.07953125 -0.1778125 3.9090625 -0.140625 2.703125 C-0.09421875 1.81109375 -0.0478125 0.9190625 0 0 Z " fill="#1B3155" transform="translate(283,126)"/>
<path d="M0 0 C0.99 0.7425 1.98 1.485 3 2.25 C16.95546295 10.78374128 36.98568083 11.44034334 52.58374023 7.70703125 C58.91534605 5.99042312 64.53283777 3.64477482 70 0 C70.10832169 2.08218362 70.18573541 4.16599129 70.25 6.25 C70.29640625 7.41015625 70.3428125 8.5703125 70.390625 9.765625 C70 13 70 13 68.2734375 15.2890625 C65.99938495 17.00046287 64.02342038 18.0984136 61.375 19.125 C60.59898437 19.43695313 59.82296875 19.74890625 59.0234375 20.0703125 C50.81789226 22.59346466 42.8760077 23.38877877 34.3125 23.375 C33.26465332 23.37338867 32.21680664 23.37177734 31.13720703 23.37011719 C20.10007911 23.19683921 10.07689072 21.76108576 1 15 C-0.44207941 12.11584117 -0.09394887 9.58278472 -0.0625 6.375 C-0.05347656 5.18648437 -0.04445312 3.99796875 -0.03515625 2.7734375 C-0.02355469 1.85820312 -0.01195312 0.94296875 0 0 Z " fill="#1B3155" transform="translate(201,170)"/>
<path d="M0 0 C0.99 0.7425 1.98 1.485 3 2.25 C16.95546295 10.78374128 36.98568083 11.44034334 52.58374023 7.70703125 C58.91534605 5.99042312 64.53283777 3.64477482 70 0 C70.10832169 2.08218362 70.18573541 4.16599129 70.25 6.25 C70.29640625 7.41015625 70.3428125 8.5703125 70.390625 9.765625 C70 13 70 13 68.2734375 15.2890625 C65.99938495 17.00046287 64.02342038 18.0984136 61.375 19.125 C60.59898437 19.43695313 59.82296875 19.74890625 59.0234375 20.0703125 C50.81789226 22.59346466 42.8760077 23.38877877 34.3125 23.375 C33.26465332 23.37338867 32.21680664 23.37177734 31.13720703 23.37011719 C20.10007911 23.19683921 10.07689072 21.76108576 1 15 C-0.44207941 12.11584117 -0.09394887 9.58278472 -0.0625 6.375 C-0.05347656 5.18648437 -0.04445313 3.99796875 -0.03515625 2.7734375 C-0.02355469 1.85820312 -0.01195313 0.94296875 0 0 Z " fill="#1B3155" transform="translate(119,170)"/>
<path d="M0 0 C0.99 0.7425 1.98 1.485 3 2.25 C16.95546295 10.78374128 36.98568083 11.44034334 52.58374023 7.70703125 C58.91534605 5.99042312 64.53283777 3.64477482 70 0 C70.10832169 2.08218362 70.18573541 4.16599129 70.25 6.25 C70.29640625 7.41015625 70.3428125 8.5703125 70.390625 9.765625 C70 13 70 13 68.2734375 15.2890625 C65.99938495 17.00046287 64.02342038 18.0984136 61.375 19.125 C60.59898437 19.43695313 59.82296875 19.74890625 59.0234375 20.0703125 C50.81789226 22.59346466 42.8760077 23.38877877 34.3125 23.375 C33.26465332 23.37338867 32.21680664 23.37177734 31.13720703 23.37011719 C20.10007911 23.19683921 10.07689072 21.76108576 1 15 C-0.44207941 12.11584117 -0.09394887 9.58278472 -0.0625 6.375 C-0.05347656 5.18648437 -0.04445312 3.99796875 -0.03515625 2.7734375 C-0.02355469 1.85820312 -0.01195312 0.94296875 0 0 Z " fill="#1B3155" transform="translate(201,148)"/>
<path d="M0 0 C0.99 0.7425 1.98 1.485 3 2.25 C16.95546295 10.78374128 36.98568083 11.44034334 52.58374023 7.70703125 C58.91534605 5.99042312 64.53283777 3.64477482 70 0 C70.10832169 2.08218362 70.18573541 4.16599129 70.25 6.25 C70.29640625 7.41015625 70.3428125 8.5703125 70.390625 9.765625 C70 13 70 13 68.2734375 15.2890625 C65.99938495 17.00046287 64.02342038 18.0984136 61.375 19.125 C60.59898437 19.43695313 59.82296875 19.74890625 59.0234375 20.0703125 C50.81789226 22.59346466 42.8760077 23.38877877 34.3125 23.375 C33.26465332 23.37338867 32.21680664 23.37177734 31.13720703 23.37011719 C20.10007911 23.19683921 10.07689072 21.76108576 1 15 C-0.44207941 12.11584117 -0.09394887 9.58278472 -0.0625 6.375 C-0.05347656 5.18648437 -0.04445313 3.99796875 -0.03515625 2.7734375 C-0.02355469 1.85820312 -0.01195313 0.94296875 0 0 Z " fill="#1B3155" transform="translate(119,148)"/>
<path d="M0 0 C0.46148437 0.32613281 0.92296875 0.65226563 1.3984375 0.98828125 C14.72089154 9.91379888 32.75683037 10.97362202 48.33935547 8.65136719 C56.16607669 7.0530646 63.32506923 4.44995384 70 0 C70.10832169 2.08218362 70.18573541 4.16599129 70.25 6.25 C70.29640625 7.41015625 70.3428125 8.5703125 70.390625 9.765625 C70 13 70 13 68.2734375 15.2890625 C65.99938495 17.00046287 64.02342038 18.0984136 61.375 19.125 C60.59898437 19.43695313 59.82296875 19.74890625 59.0234375 20.0703125 C51.32313218 22.43810664 43.85133018 23.3630397 35.8125 23.3125 C34.45209595 23.30730347 34.45209595 23.30730347 33.06420898 23.30200195 C22.06822494 23.12641544 10.70459465 22.01734566 1.640625 15.234375 C-0.62390698 12.15029811 -0.40114516 10.02862897 -0.25 6.25 C-0.21390625 5.07953125 -0.1778125 3.9090625 -0.140625 2.703125 C-0.09421875 1.81109375 -0.0478125 0.9190625 0 0 Z " fill="#1A3155" transform="translate(283,170)"/>
<path d="M0 0 C0.46148437 0.32613281 0.92296875 0.65226563 1.3984375 0.98828125 C14.72089154 9.91379888 32.75683037 10.97362202 48.33935547 8.65136719 C56.16607669 7.0530646 63.32506923 4.44995384 70 0 C70.10832169 2.08218362 70.18573541 4.16599129 70.25 6.25 C70.29640625 7.41015625 70.3428125 8.5703125 70.390625 9.765625 C70 13 70 13 68.2734375 15.2890625 C65.99938495 17.00046287 64.02342038 18.0984136 61.375 19.125 C60.59898437 19.43695313 59.82296875 19.74890625 59.0234375 20.0703125 C51.32313218 22.43810664 43.85133018 23.3630397 35.8125 23.3125 C34.45209595 23.30730347 34.45209595 23.30730347 33.06420898 23.30200195 C22.06822494 23.12641544 10.70459465 22.01734566 1.640625 15.234375 C-0.62390698 12.15029811 -0.40114516 10.02862897 -0.25 6.25 C-0.21390625 5.07953125 -0.1778125 3.9090625 -0.140625 2.703125 C-0.09421875 1.81109375 -0.0478125 0.9190625 0 0 Z " fill="#1A3155" transform="translate(283,148)"/>
<path d="M0 0 C1.3921875 1.1446875 1.3921875 1.1446875 2.8125 2.3125 C14.69020463 10.81722563 34.46935758 10.64921448 48.4375 8.65136719 C55.91837526 7.20707149 64.46178894 5.53821106 70 0 C70.10832169 2.08218362 70.18573541 4.16599129 70.25 6.25 C70.29640625 7.41015625 70.3428125 8.5703125 70.390625 9.765625 C70 13 70 13 68.2734375 15.2890625 C65.99938495 17.00046287 64.02342038 18.0984136 61.375 19.125 C60.59898437 19.43695313 59.82296875 19.74890625 59.0234375 20.0703125 C41.8076522 25.36405527 21.02405955 25.34112569 4.46875 17.85546875 C2.2047135 16.36857176 1.18301181 15.44489107 0 13 C-0.53996819 8.6016183 -0.41172349 4.40478786 0 0 Z " fill="#1B3155" transform="translate(283,60)"/>
<path d="M0 0 C0.99 0.495 0.99 0.495 2 1 C2 1.66 2 2.32 2 3 C21.09731483 10.8656844 42.3955372 12.06233058 62 5 C65.16881992 3.55043344 67.53738014 2.46261986 70 0 C70.10832169 2.08218362 70.18573541 4.16599129 70.25 6.25 C70.29640625 7.41015625 70.3428125 8.5703125 70.390625 9.765625 C70 13 70 13 68.2734375 15.2890625 C65.99938495 17.00046287 64.02342038 18.0984136 61.375 19.125 C60.59898437 19.43695313 59.82296875 19.74890625 59.0234375 20.0703125 C50.81789226 22.59346466 42.8760077 23.38877877 34.3125 23.375 C33.26465332 23.37338867 32.21680664 23.37177734 31.13720703 23.37011719 C20.10007911 23.19683921 10.07689072 21.76108576 1 15 C-0.44207941 12.11584117 -0.09394887 9.58278472 -0.0625 6.375 C-0.05347656 5.18648437 -0.04445312 3.99796875 -0.03515625 2.7734375 C-0.02355469 1.85820312 -0.01195312 0.94296875 0 0 Z " fill="#1B3155" transform="translate(201,193)"/>
<path d="M0 0 C0.99 0.495 0.99 0.495 2 1 C2 1.66 2 2.32 2 3 C21.09731483 10.8656844 42.3955372 12.06233058 62 5 C65.16881992 3.55043344 67.53738014 2.46261986 70 0 C70.10832169 2.08218362 70.18573541 4.16599129 70.25 6.25 C70.29640625 7.41015625 70.3428125 8.5703125 70.390625 9.765625 C70 13 70 13 68.2734375 15.2890625 C65.99938495 17.00046287 64.02342038 18.0984136 61.375 19.125 C60.59898437 19.43695313 59.82296875 19.74890625 59.0234375 20.0703125 C50.81789226 22.59346466 42.8760077 23.38877877 34.3125 23.375 C33.26465332 23.37338867 32.21680664 23.37177734 31.13720703 23.37011719 C20.10007911 23.19683921 10.07689072 21.76108576 1 15 C-0.44207941 12.11584117 -0.09394887 9.58278472 -0.0625 6.375 C-0.05347656 5.18648437 -0.04445313 3.99796875 -0.03515625 2.7734375 C-0.02355469 1.85820312 -0.01195313 0.94296875 0 0 Z " fill="#1B3155" transform="translate(119,193)"/>
<path d="M0 0 C1.3921875 1.1446875 1.3921875 1.1446875 2.8125 2.3125 C14.69020463 10.81722563 34.46935758 10.64921448 48.4375 8.65136719 C55.91837526 7.20707149 64.46178894 5.53821106 70 0 C70.10832169 2.08218362 70.18573541 4.16599129 70.25 6.25 C70.29640625 7.41015625 70.3428125 8.5703125 70.390625 9.765625 C70 13 70 13 68.2734375 15.2890625 C65.99938495 17.00046287 64.02342038 18.0984136 61.375 19.125 C60.59898437 19.43695313 59.82296875 19.74890625 59.0234375 20.0703125 C51.32313218 22.43810664 43.85133018 23.3630397 35.8125 23.3125 C34.45209595 23.30730347 34.45209595 23.30730347 33.06420898 23.30200195 C22.06822494 23.12641544 10.70459465 22.01734566 1.640625 15.234375 C-0.62390698 12.15029811 -0.40114516 10.02862897 -0.25 6.25 C-0.21390625 5.07953125 -0.1778125 3.9090625 -0.140625 2.703125 C-0.09421875 1.81109375 -0.0478125 0.9190625 0 0 Z " fill="#1A3155" transform="translate(283,193)"/>
<path d="M0 0 C1.3921875 1.1446875 1.3921875 1.1446875 2.8125 2.3125 C14.69020463 10.81722563 34.46935758 10.64921448 48.4375 8.65136719 C55.91837526 7.20707149 64.46178894 5.53821106 70 0 C70.10832169 2.08218362 70.18573541 4.16599129 70.25 6.25 C70.29640625 7.41015625 70.3428125 8.5703125 70.390625 9.765625 C70 13 70 13 68.2734375 15.2890625 C65.99938495 17.00046287 64.02342038 18.0984136 61.375 19.125 C60.59898437 19.43695313 59.82296875 19.74890625 59.0234375 20.0703125 C51.32313218 22.43810664 43.85133018 23.3630397 35.8125 23.3125 C34.45209595 23.30730347 34.45209595 23.30730347 33.06420898 23.30200195 C22.06822494 23.12641544 10.70459465 22.01734566 1.640625 15.234375 C-0.62390698 12.15029811 -0.40114516 10.02862897 -0.25 6.25 C-0.21390625 5.07953125 -0.1778125 3.9090625 -0.140625 2.703125 C-0.09421875 1.81109375 -0.0478125 0.9190625 0 0 Z " fill="#1B3155" transform="translate(283,82)"/>
<path d="M0 0 C0.33 0 0.66 0 1 0 C1.10832169 2.08218362 1.18573541 4.16599129 1.25 6.25 C1.29640625 7.41015625 1.3428125 8.5703125 1.390625 9.765625 C1 13 1 13 -0.7265625 15.2890625 C-3.00061505 17.00046287 -4.97657962 18.0984136 -7.625 19.125 C-8.40101562 19.43695313 -9.17703125 19.74890625 -9.9765625 20.0703125 C-17.67632744 22.43794048 -25.1490279 23.36453139 -33.1875 23.3125 C-34.09661133 23.30758545 -35.00572266 23.3026709 -35.94238281 23.29760742 C-47.10137243 23.10599039 -58.84735644 22.03870812 -68 15 C-69.38226016 12.23547967 -69.09525387 9.9538637 -69.0625 6.875 C-69.05347656 5.77929688 -69.04445312 4.68359375 -69.03515625 3.5546875 C-69.02355469 2.71164063 -69.01195312 1.86859375 -69 1 C-68.42894531 1.32613281 -67.85789063 1.65226563 -67.26953125 1.98828125 C-49.81301239 11.39648458 -29.00580473 11.36206663 -10.1796875 6.16796875 C-7.16862181 5.06193848 -4.71405113 3.68541609 -2 2 C-1.34 2 -0.68 2 0 2 C0 1.34 0 0.68 0 0 Z " fill="#1A3155" transform="translate(106,193)"/>
</svg>
